<?xml version="1.0" standalone="no"?><!DOCTYPE svg PUBLIC "-//W3C//DTD SVG 1.1//EN" "http://www.w3.org/Graphics/SVG/1.1/DTD/svg11.dtd"><svg t="1702375041291" class="icon" viewBox="0 0 1024 1024" version="1.1" xmlns="http://www.w3.org/2000/svg" p-id="21328" xmlns:xlink="http://www.w3.org/1999/xlink" width="40" height="40"><path d="M512 1024c-56.096-89.344-97.184-137.728-123.296-145.184C201.216 825.248 64 652.672 64 448 64 200.576 264.576 0 512 0s448 200.576 448 448c0 203.168-135.232 374.72-320.608 429.632-26.88 7.968-69.376 56.768-127.392 146.368z m364.96-487.104c-67.808-90.56-169.088-183.232-197.12-206.144-19.616-16.064-39.104-24.128-58.368-23.808-19.264 0.192-37.92 8.256-54.432 22.72l-13.888 12.48c-40.256 34.24-164.672 149.76-167.52 152.416-9.44 8.96-21.504 14.784-35.072 14.336-11.968-0.512-25.088-5.888-38.528-18.496-9.28-8.672-51.744-42.368-101.44-98.752-30.528-34.656-55.744-65.632-55.744-65.632s-5.632 11.712-8.768 19.808c-2.624 6.752-0.384 11.008 0.896 12.864 16.576 24.064 92.384 115.648 196.864 206.624 19.136 16.608 39.136 24.064 58.368 23.808 19.296-0.256 37.92-8.288 54.4-22.816 4.704-4.096 9.344-8.256 13.952-12.416 40.224-34.24 115.648-104.064 151.36-137.536 7.68-6.976 13.312-12.256 16.128-14.944 9.472-8.896 21.536-14.752 35.072-14.304 12 0.512 24.608 6.496 38.56 18.496 22.304 19.264 58.56 53.12 101.44 98.784 31.488 33.536 55.552 64.928 55.808 65.248 0 0 5.888-12.064 8.992-20.32 2.56-6.784 0.384-10.592-0.96-12.416zM474.4 204c-35.008 25.824-179.04 160.96-207.296 193.248 0 0 20.288 22.592 50.688 48.032 7.872 6.816 17.44 5.44 25.664-3.008 55.456-56.32 168.64-157.12 183.904-169.408 42.656-36.64 92.384-39.872 137.92-5.376 110.528 83.616 208.288 215.232 225.152 239.776 0 0 2.464-12.096 4-22.976 0.064-0.608 2.112-10.4-3.424-18.592-103.68-151.232-214.016-244.576-256.352-267.84-48.512-26.688-104.448-35.008-160.256 6.144zM357.76 125.088c-71.136 58.048-162.784 143.52-186.016 169.28 0 0 17.312 21.76 44.576 48.672 5.216 4.544 10.784 3.328 15.36-1.6 70.4-68.64 146.656-138.656 190.88-173.248 74.656-58.272 162.176-63.968 247.552 4.928 31.776 25.696 59.968 51.104 101.184 93.952 52.672 57.984 87.04 106.432 124.704 161.024 0 0-0.192-14.624-4.352-33.984a60.48 60.48 0 0 0-4.48-13.408c-7.52-15.264-40.8-72.896-89.024-129.76-95.616-112.832-156-147.168-194.72-167.68-51.328-27.264-151.36-35.2-245.664 41.824z m191.84 566.912c34.976-25.792 179.008-160.928 207.264-193.248 0 0-20.256-22.592-50.688-48-7.872-6.88-17.44-5.44-25.664 2.944-55.456 56.352-168.64 157.12-183.872 169.504-42.656 36.544-92.384 39.808-137.92 5.312-110.528-83.616-208.32-215.2-225.12-239.744 0 0-2.496 12.064-4.032 22.944-0.064 0.64-2.112 10.432 3.392 18.624 103.68 151.232 214.016 244.544 256.384 267.776 48.512 26.72 104.448 35.04 160.256-6.08z m116.608 78.912c71.168-58.016 162.784-143.488 186.048-169.248 0 0-17.344-21.824-44.544-48.704-5.28-4.544-10.816-3.328-15.456 1.6-70.336 68.64-146.592 138.688-190.848 173.216-74.624 58.336-162.208 63.936-247.552-4.896-31.744-25.664-59.968-51.072-101.184-93.952C200 570.912 165.632 522.464 128 467.872c0 0-0.256 14.144 4.32 34.016 0.768 3.296 2.144 8.64 4.48 13.312 7.584 15.36 40.8 72.96 89.024 129.856 95.68 112.832 156.032 147.2 194.752 167.68 51.296 27.264 151.328 35.2 245.632-41.824z" fill="#02686c" p-id="21329"></path></svg>