<?xml version="1.0" standalone="no"?><!DOCTYPE svg PUBLIC "-//W3C//DTD SVG 1.1//EN" "http://www.w3.org/Graphics/SVG/1.1/DTD/svg11.dtd"><svg t="1702375004687" class="icon" viewBox="0 0 1359 1024" version="1.1" xmlns="http://www.w3.org/2000/svg" p-id="19021" xmlns:xlink="http://www.w3.org/1999/xlink" width="53.0859375" height="40"><path d="M969.052524 970.647675a176.677509 176.677509 0 0 1-248.062362 0l-42.830911-42.830911-42.830911 42.830911a175.428274 175.428274 0 1 1-248.062362-248.062361l210.585314-210.585314-212.369935-210.585314a175.428274 175.428274 0 0 1 248.062361-248.062361l42.830912 42.830911 42.830911-42.830911a175.428274 175.428274 0 1 1 248.062361 248.062361l-210.585314 210.585314s192.739101 190.95448 212.369936 208.800693a175.606736 175.606736 0 0 1 0 249.846982z m-292.677894-378.339716s-183.815994 185.600616-208.800693 210.585314a60.570047 60.570047 0 1 0 85.661823 85.661822l42.830911-42.830911-64.246367-64.246367 82.09258-82.09258 64.246367 64.246367 64.246367-64.246367 82.09258 82.09258-66.030988 64.246367 42.830911 42.830911a60.570047 60.570047 0 0 0 85.661823-85.661822l-210.585314-210.585314z m-542.524877-123.13887a60.3202 60.3202 0 0 0 0 85.661822 61.390973 61.390973 0 0 0 85.661823-0.89231l42.830911-42.830912-42.830911-41.9386a58.357117 58.357117 0 0 0-85.661823 0z m753.110191-249.846983a60.570047 60.570047 0 0 0-85.661823-85.661823l-42.830911 42.830912 64.246367 64.246367-81.557194 81.200269-62.461746-64.246367-64.246367 64.246367-82.09258-82.09258 64.246367-64.246367L553.771146 132.767973a60.570047 60.570047 0 0 0-85.661823 85.661822c24.984698 24.984698 208.800693 210.585314 208.800693 210.585314l210.585314-210.585314z m248.062361 249.846983l-42.830911 42.830911 42.830911 42.830911a61.390973 61.390973 0 0 0 85.661823 0 60.570047 60.570047 0 0 0-85.661823-85.661822z m-1083.265132 165.969781a175.606736 175.606736 0 0 1-51.754018-124.923491 181.852911 181.852911 0 0 1 51.754018-124.923492 173.465191 173.465191 0 0 1 248.062361 0l42.830912 42.830912 64.246367-64.246367 82.09258 82.09258-64.246367 64.246367 64.246367 64.246367-82.09258 82.09258-64.246367-64.246367-42.830912 42.830911a173.465191 173.465191 0 0 1-248.062361 0z m1249.234913 0a176.677509 176.677509 0 0 1-248.062361 0l-42.830911-42.830911-64.246367 66.030988-82.09258-82.09258 64.246367-64.246367-63.710981-65.138678 82.09258-82.09258 64.246367 64.246367 42.830911-42.830911a173.465191 173.465191 0 0 1 248.062362 0 175.606736 175.606736 0 0 1 51.754018 124.923491 167.397478 167.397478 0 0 1-51.754018 123.13887z" fill="#02686c" p-id="19022"></path></svg>