<?xml version="1.0" standalone="no"?><!DOCTYPE svg PUBLIC "-//W3C//DTD SVG 1.1//EN" "http://www.w3.org/Graphics/SVG/1.1/DTD/svg11.dtd"><svg t="1702375216790" class="icon" viewBox="0 0 1024 1024" version="1.1" xmlns="http://www.w3.org/2000/svg" p-id="30820" xmlns:xlink="http://www.w3.org/1999/xlink" width="40" height="40"><path d="M832 469.333333H192c-23.466667 0-42.666667 19.2-42.666667 42.666667v426.666667c0 23.466667 19.2 42.666667 42.666667 42.666666h640c23.466667 0 42.666667-19.2 42.666667-42.666666V512c0-23.466667-19.2-42.666667-42.666667-42.666667z m-618.666667 64h256v85.333334H213.333333v-85.333334z m405.333334 149.333334v85.333333H405.333333v-85.333333h213.333334z m-405.333334 0h128v85.333333h-128v-85.333333z m256 234.666666H213.333333v-85.333333h256v85.333333z m341.333334 0H533.333333v-85.333333h277.333334v85.333333z m0-149.333333h-128v-85.333333h128v85.333333z m0-149.333333H533.333333v-85.333334h277.333334v85.333334zM416 426.666667c10.666667 6.4 21.333333 8.533333 32 8.533333 12.8 0 27.733333-4.266667 38.4-12.8 21.333333-14.933333 29.866667-40.533333 23.466667-66.133333v-2.133334c0-4.266667 4.266667-12.8 10.666666-19.2 0 0 2.133333 0 2.133334-2.133333 0 8.533333-2.133333 17.066667-2.133334 23.466667-4.266667 25.6 6.4 51.2 27.733334 64 10.666667 6.4 23.466667 10.666667 34.133333 10.666666 12.8 0 25.6-4.266667 36.266667-10.666666 61.866667-42.666667 78.933333-91.733333 83.2-128 8.533333-66.133333-27.733333-125.866667-57.6-164.266667-10.666667-12.8-29.866667-21.333333-49.066667-21.333333-19.2-23.466667-40.533333-40.533333-57.6-51.2-10.666667-8.533333-23.466667-12.8-36.266667-12.8-8.533333 0-19.2 2.133333-27.733333 6.4-21.333333 8.533333-34.133333 29.866667-36.266667 51.2 0 6.4-6.4 21.333333-14.933333 36.266666-21.333333 2.133333-40.533333 17.066667-49.066667 36.266667l-4.266666 4.266667c-8.533333 10.666667-23.466667 29.866667-34.133334 59.733333-27.733333 72.533333 4.266667 145.066667 81.066667 189.866667z m-21.333333-168.533334c6.4-19.2 17.066667-32 25.6-42.666666 4.266667-6.4 8.533333-10.666667 10.666666-17.066667l6.4 12.8c0 2.133333 2.133333 4.266667 6.4 4.266667 2.133333 0 4.266667 0 6.4-2.133334 6.4-8.533333 49.066667-68.266667 53.333334-106.666666 17.066667 12.8 53.333333 40.533333 70.4 83.2-2.133333 0 0 2.133333 2.133333 2.133333h4.266667c6.4-2.133333 12.8-10.666667 14.933333-23.466667 19.2 23.466667 49.066667 68.266667 42.666667 115.2-4.266667 32-23.466667 57.6-55.466667 81.066667 6.4-36.266667 10.666667-119.466667-59.733333-164.266667h-8.533334c-2.133333 2.133333-4.266667 4.266667-4.266666 6.4 0 0 0 49.066667-34.133334 78.933334-21.333333 17.066667-32 42.666667-34.133333 66.133333 0 6.4 0 12.8 2.133333 19.2-23.466667-14.933333-70.4-53.333333-49.066666-113.066667z" p-id="30821" fill="#02686c"></path></svg>