<?xml version="1.0" standalone="no"?><!DOCTYPE svg PUBLIC "-//W3C//DTD SVG 1.1//EN" "http://www.w3.org/Graphics/SVG/1.1/DTD/svg11.dtd"><svg t="1702374398781" class="icon" viewBox="0 0 1024 1024" version="1.1" xmlns="http://www.w3.org/2000/svg" p-id="8167" width="40" height="40" xmlns:xlink="http://www.w3.org/1999/xlink"><path d="M942.7 895.9h-37.2V656.2c0-48-39-87-87-87h-48.8V153.7c0-48-39-87-87-87H351.2c-48 0-87 39-87 87v415.5h-53.7c-48 0-87 39-87 87V896H80.7c-16 0-29 13-29 29s13 29 29 29h862c16 0 29-13 29-29s-13-29.1-29-29.1zM818.5 627.2c16 0 29 13 29 29V896h-77.8V627.2h48.8zM351.2 124.7h331.5c16 0 29 13 29 29V896h-39.4v-78.8c0-20.4-16.6-37-37-37H399.5c-20.4 0-37 16.6-37 37V896h-40.3V153.7c0-16 13-29 29-29z m271.1 771.2H412.5v-65.8h209.7v65.8zM181.5 656.2c0-16 13-29 29-29h53.7V896h-82.7V656.2z" p-id="8168" fill="#02686c"></path><path d="M471.7 674.2l-11 64 53.9-30 56.1 30-9-62 44-48-62-10-27.3-60-28.7 60-62 10zM409 249.2h19.8c8.3 0 15.1-6.8 15.1-15.1v-19.8c0-8.3-6.8-15.1-15.1-15.1H409c-8.3 0-15.1 6.8-15.1 15.1v19.8c0 8.3 6.8 15.1 15.1 15.1zM429.8 330.1H410c-8.3 0-15.1 6.8-15.1 15.1V365c0 8.3 6.8 15.1 15.1 15.1h19.8c8.3 0 15.1-6.8 15.1-15.1v-19.8c0-8.3-6.8-15.1-15.1-15.1zM444.9 494.5v-19.8c0-8.3-6.8-15.1-15.1-15.1H410c-8.3 0-15.1 6.8-15.1 15.1v19.8c0 8.3 6.8 15.1 15.1 15.1h19.8c8.3 0 15.1-6.8 15.1-15.1zM601.7 248.6h19.8c8.3 0 15.1-6.8 15.1-15.1v-19.8c0-8.3-6.8-15.1-15.1-15.1h-19.8c-8.3 0-15.1 6.8-15.1 15.1v19.8c0 8.3 6.8 15.1 15.1 15.1zM622.5 329.5h-19.8c-8.3 0-15.1 6.8-15.1 15.1v19.8c0 8.3 6.8 15.1 15.1 15.1h19.8c8.3 0 15.1-6.8 15.1-15.1v-19.8c0-8.3-6.8-15.1-15.1-15.1zM622.5 459h-19.8c-8.3 0-15.1 6.8-15.1 15.1v19.8c0 8.3 6.8 15.1 15.1 15.1h19.8c8.3 0 15.1-6.8 15.1-15.1v-19.8c0-8.3-6.8-15.1-15.1-15.1z" p-id="8169" fill="#02686c"></path></svg>