<?xml version="1.0" standalone="no"?><!DOCTYPE svg PUBLIC "-//W3C//DTD SVG 1.1//EN" "http://www.w3.org/Graphics/SVG/1.1/DTD/svg11.dtd"><svg t="1702381001515" class="icon" viewBox="0 0 1024 1024" version="1.1" xmlns="http://www.w3.org/2000/svg" p-id="42901" xmlns:xlink="http://www.w3.org/1999/xlink" width="40" height="40"><path d="M511.936 128c159.744 0 291.136 129.28 305.92 294.528 117.568 24.512 206.144 134.4 206.144 266.176 0 143.744-105.6 261.312-238.912 270.72V960H238.912v-0.64C105.408 950.016 0 832.448 0 688.64c0-131.712 88.576-241.472 206.208-266.112C220.928 257.28 352.128 128 511.936 128z m0 89.6c-111.168 0-205.696 91.648-216.512 212.928L289.536 496.64l-64.96 13.568C147.584 526.336 89.6 600.32 89.6 688.704c0 96.96 69.44 175.232 155.52 181.312l5.888 0.384h521.984l5.888-0.384c86.016-6.08 155.52-84.416 155.52-181.312 0-88.448-58.048-162.432-134.848-178.432l-65.088-13.568-5.888-66.176C717.696 309.248 623.168 217.6 511.936 217.6z m140.672 460.032v89.6H379.136v-89.6h273.472z m0-158.72v89.6H379.136v-89.6h273.472z" fill="#02686c" p-id="42902"></path></svg>