<?xml version="1.0" standalone="no"?><!DOCTYPE svg PUBLIC "-//W3C//DTD SVG 1.1//EN" "http://www.w3.org/Graphics/SVG/1.1/DTD/svg11.dtd"><svg t="1702379427427" class="icon" viewBox="0 0 1102 1024" version="1.1" xmlns="http://www.w3.org/2000/svg" p-id="40881" xmlns:xlink="http://www.w3.org/1999/xlink" width="43.046875" height="40"><path d="M446.385231 39.384615c216.379077 0 389.435077 51.987692 389.435077 144.384v178.176a157.538462 157.538462 0 0 1-8.743385 302.631385v44.268308L1024 708.923077a39.384615 39.384615 0 0 1 38.754462 32.295385l0.630153 7.08923v236.307693a39.384615 39.384615 0 0 1-39.384615 39.384615H551.384615a39.384615 39.384615 0 0 1-39.384615-39.384615v-1.811693c-21.504 1.181538-43.401846 1.811692-65.614769 1.811693-209.447385 0-378.249846-48.600615-388.962462-135.561847l-0.551384-8.822153V183.768615l0.551384-8.822153C68.135385 87.985231 237.016615 39.384615 446.385231 39.384615z m538.151384 748.307693h-393.846153v157.538461h393.846153v-157.538461zM757.051077 276.48c-70.892308 33.713231-183.296 51.751385-310.665846 51.751385-127.448615 0-239.852308-18.038154-310.744616-51.751385V393.846154c0 11.815385 35.131077 28.199385 91.529847 41.668923l25.363692 5.513846 13.627077 2.678154 28.908307 4.726154 30.877539 4.096c31.822769 3.702154 66.244923 6.144 102.321231 6.774154l18.116923 0.157538v78.769231c-127.448615 0-239.852308-17.959385-310.744616-51.672616v117.366154c0 7.561846 14.493538 17.014154 39.857231 26.387693l18.432 6.301538c10.003692 2.993231 21.110154 6.065231 33.240616 8.900923l25.363692 5.592616c8.900923 1.811692 18.195692 3.465846 27.805538 5.12l29.932308 4.411076 31.822769 3.702154c27.175385 2.756923 56.162462 4.489846 86.173539 5.041231l18.116923 0.157539v78.76923c-127.448615 0-239.852308-18.038154-310.744616-51.672615v143.596308c0 7.561846 14.493538 17.014154 39.857231 26.387692l18.432 6.301538c10.003692 2.993231 21.110154 6.065231 33.240616 8.900923l25.363692 5.592616c8.900923 1.811692 18.195692 3.465846 27.805538 5.12l29.932308 4.411077 31.822769 3.702154a1050.939077 1050.939077 0 0 0 169.905231 3.308307V748.307692A39.384615 39.384615 0 0 1 551.384615 708.923077l196.923077-0.078769-0.078769-44.268308a157.538462 157.538462 0 0 1 8.743385-307.121231zM787.692308 433.230769a78.769231 78.769231 0 1 0 0 157.538462 78.769231 78.769231 0 0 0 0-157.538462z m-341.307077-315.076923c-36.548923 0-71.68 1.969231-104.290462 5.198769l-31.822769 3.702154-29.932308 4.411077c-9.609846 1.575385-18.904615 3.308308-27.805538 5.12l-25.363692 5.513846a534.685538 534.685538 0 0 0-33.240616 9.058462l-18.432 6.222769c-25.363692 9.373538-39.857231 18.904615-39.857231 26.387692 0 6.774154 11.500308 14.966154 31.82277 23.315693l16.856615 6.301538c6.144 2.048 12.839385 4.096 20.007385 6.144l22.843077 5.907692c8.034462 1.890462 16.541538 3.780923 25.363692 5.513847l27.805538 5.12 14.729846 2.363077 30.877539 4.01723 16.147692 1.811693 33.398154 2.756923a1051.096615 1051.096615 0 0 0 141.705846 0l33.476923-2.756923 16.068923-1.811693 30.877539-4.01723c10.003692-1.575385 19.692308-3.150769 28.908308-4.804924l26.624-5.356307a680.566154 680.566154 0 0 0 12.445538-2.835693l22.843077-5.907692c7.089231-2.048 13.784615-4.096 19.928615-6.144l16.856616-6.301538c20.401231-8.349538 31.822769-16.541538 31.822769-23.315693 0-7.561846-14.493538-17.014154-39.857231-26.387692l-18.432-6.301538a534.685538 534.685538 0 0 0-33.161846-8.900923l-25.442462-5.592616c-8.900923-1.811692-18.116923-3.465846-27.805538-5.12l-29.932308-4.411077a988.475077 988.475077 0 0 0-15.675077-1.969231l-32.610461-3.229538c-27.884308-2.363077-57.344-3.702154-87.748923-3.702154z" fill="#02686c" p-id="40882"></path></svg>