<?xml version="1.0" standalone="no"?><!DOCTYPE svg PUBLIC "-//W3C//DTD SVG 1.1//EN" "http://www.w3.org/Graphics/SVG/1.1/DTD/svg11.dtd"><svg t="1702375179068" class="icon" viewBox="0 0 1024 1024" version="1.1" xmlns="http://www.w3.org/2000/svg" p-id="27782" xmlns:xlink="http://www.w3.org/1999/xlink" width="40" height="40"><path d="M467.2 857.6l76.8-332.8L332.8 524.8l211.2-416-19.2 320 224 0L467.2 857.6 467.2 857.6z" p-id="27783" fill="#02686c"></path><path d="M524.8 70.4c172.8 0 313.6 0 396.8 0 0 179.2-25.6 652.8-409.6 876.8C179.2 742.4 89.6 332.8 108.8 70.4 179.2 70.4 313.6 70.4 524.8 70.4M524.8 0C288 0 44.8 0 44.8 0 0 288 96 793.6 512 1024c422.4-224 499.2-736 473.6-1024C985.6 0 755.2 0 524.8 0L524.8 0 524.8 0z" p-id="27784" fill="#02686c"></path></svg>