<?xml version="1.0" standalone="no"?><!DOCTYPE svg PUBLIC "-//W3C//DTD SVG 1.1//EN" "http://www.w3.org/Graphics/SVG/1.1/DTD/svg11.dtd"><svg t="1702379281267" class="icon" viewBox="0 0 1024 1024" version="1.1" xmlns="http://www.w3.org/2000/svg" p-id="33037" xmlns:xlink="http://www.w3.org/1999/xlink" width="40" height="40"><path d="M886.32 100.24H139.4c-22.86 0-41.4 18.54-41.4 41.4v745.18c0 22.86 18.54 41.4 41.4 41.4h746.91c22.86 0 41.4-18.54 41.4-41.4V141.64c0.01-22.87-18.53-41.4-41.39-41.4zM462.84 597.02V431.43h382.08v165.59H462.84zM180.8 431.43h199.23v165.59H180.8V431.43z m664.12-82.8H680.19v-165.6h164.73v165.6z m-247.53-165.6v165.6H180.8v-165.6h416.59zM180.8 679.82h416.59v165.6H180.8v-165.6z m499.39 165.6v-165.6h164.73v165.6H680.19z" fill="#02686c" p-id="33038"></path></svg>