<?xml version="1.0" standalone="no"?><!DOCTYPE svg PUBLIC "-//W3C//DTD SVG 1.1//EN" "http://www.w3.org/Graphics/SVG/1.1/DTD/svg11.dtd"><svg t="1702374825117" class="icon" viewBox="0 0 1024 1024" version="1.1" xmlns="http://www.w3.org/2000/svg" p-id="10451" xmlns:xlink="http://www.w3.org/1999/xlink" width="40" height="40"><path d="M938.584305 1024H85.401849a35.509814 35.509814 0 0 1-35.509813-35.509814V350.284142a35.509814 35.509814 0 0 1 35.509813-35.509814h853.182456a35.509814 35.509814 0 0 1 35.509814 35.509814v638.206044a35.509814 35.509814 0 0 1-35.509814 35.509814z m-817.672642-71.019627h782.162829V385.793956H120.911663z" fill="#02686c" p-id="10452"></path><path d="M85.401849 490.571579h853.182456v71.019628H85.401849zM221.972593 975.304209h-47.346419v-235.524757a97.865046 97.865046 0 0 1 195.730093 0v227.262807h-47.346418v-227.262807a50.518628 50.518628 0 0 0-101.037256 0zM465.356855 975.304209h-47.346418v-235.524757a97.865046 97.865046 0 0 1 195.70642 0v227.262807h-47.346418v-227.262807a50.518628 50.518628 0 0 0-101.013584 0zM706.39747 975.304209h-47.346418v-235.524757a97.865046 97.865046 0 0 1 195.70642 0v227.262807H807.434727v-227.262807a50.518628 50.518628 0 0 0-101.013583 0z" fill="#02686c" p-id="10453"></path><path d="M704.645653 561.591207H324.737993a63.917665 63.917665 0 0 1-63.917664-63.917665V242.144923a63.917665 63.917665 0 0 1 63.917664-63.917665h379.90766a63.917665 63.917665 0 0 1 63.917665 63.917665v255.504946a63.917665 63.917665 0 0 1-63.917665 63.941338z m-372.805697-71.019628h365.703734V249.246886H331.839956z" fill="#02686c" p-id="10454"></path><path d="M512.6796 237.410281a23.673209 23.673209 0 0 1-23.673209-23.673209v-189.385673a23.673209 23.673209 0 0 1 47.346418 0v189.385673a23.673209 23.673209 0 0 1-23.673209 23.673209zM648.421781 133.011429a23.673209 23.673209 0 0 1-23.673209-23.673209V35.122709a23.673209 23.673209 0 1 1 47.346418 0v74.215511a23.673209 23.673209 0 0 1-23.673209 23.673209z" fill="#02686c" p-id="10455"></path><path d="M553.3265 68.288875a74.996726 74.996726 0 0 1-56.413257-26.300935L533.819776 12.325409l-0.260405-0.307752c3.077517 3.550981 14.60637 14.416984 33.71065 5.397492l0.473464-0.213059c41.735868-19.719783 54.187976-24.05198 91.567973-4.734642a23.673209 23.673209 0 1 1-21.803026 42.019946c-12.144356-6.297074-16.003089-7.386041-18.678162-7.101962-5.231779 0.497137-15.979416 5.563204-30.775172 12.594147l-0.473464 0.213059a79.494636 79.494636 0 0 1-34.255134 8.096237zM553.3265 144.090491a74.996726 74.996726 0 0 1-56.413257-26.300935l36.906533-29.662531-0.260405-0.331425c3.077517 3.550981 14.60637 14.416984 33.71065 5.397491l0.473464-0.213059c41.735868-19.719783 54.187976-24.075654 91.567973-4.734641a23.673209 23.673209 0 1 1-21.803026 42.019946c-12.144356-6.297074-16.074109-7.386041-18.678162-7.101963-5.231779 0.497137-15.979416 5.586877-30.775172 12.594147l-0.473464 0.213059a79.494636 79.494636 0 0 1-34.255134 8.119911z" fill="#02686c" p-id="10456"></path></svg>