<?xml version="1.0" standalone="no"?><!DOCTYPE svg PUBLIC "-//W3C//DTD SVG 1.1//EN" "http://www.w3.org/Graphics/SVG/1.1/DTD/svg11.dtd"><svg t="1702379366542" class="icon" viewBox="0 0 1024 1024" version="1.1" xmlns="http://www.w3.org/2000/svg" p-id="38958" xmlns:xlink="http://www.w3.org/1999/xlink" width="40" height="40"><path d="M876.0832 56.8832a91.0336 91.0336 0 0 1 91.0336 91.0336v728.1664c0 48.64-38.1696 88.3968-86.1952 90.88l-4.8384 0.1536H147.9168c-48.64 0-88.3968-38.1696-90.88-86.1952l-0.1536-4.8384V147.9168a91.0336 91.0336 0 0 1 91.0336-91.0336z m0 364.0832H147.8912v455.1168h728.192V420.9664z m0-273.0496H147.9168l-0.0256 182.016h728.192v-182.016zM238.9248 193.4336a45.5168 45.5168 0 1 1 0 91.008 45.5168 45.5168 0 0 1 0-91.008z m136.5504 0a45.5168 45.5168 0 1 1 0 91.008 45.5168 45.5168 0 0 1 0-91.008z m136.5248 0a45.5168 45.5168 0 1 1 0 91.008 45.5168 45.5168 0 0 1 0-91.008z" fill="#02686c" p-id="38959"></path><path d="M339.712 717.5168l27.8528-100.352 27.9296 100.352h48.2816l35.1232-159.3856h-46.5408l-16.8448 89.0624-24.6784-89.0624h-46.6688l-24.576 89.0624-16.8448-89.0624H256l35.456 159.3856h48.256z m213.4528 2.6112c17.6128 0 31.1296-2.5088 40.5504-7.552 9.4208-5.0432 17.4592-13.3376 24.1408-24.9344l-43.5968-4.0448c-2.7648 3.4816-5.3504 5.9136-7.7312 7.296a25.1392 25.1392 0 0 1-12.3904 3.2512 20.992 20.992 0 0 1-16.7424-7.5008c-3.072-3.4816-4.9664-8.7552-5.76-15.872h88.704v-4.992c0-15.232-2.4832-27.5968-7.5008-37.0688a50.6624 50.6624 0 0 0-21.8368-21.76c-9.5744-4.992-22.6304-7.5008-39.168-7.5008-20.352 0-36.3264 5.5808-47.872 16.7424-11.5712 11.1616-17.3568 25.7792-17.3568 43.8272 0 12.672 2.8928 23.7056 8.6528 33.1008 5.76 9.3952 13.0304 16.2304 21.7856 20.5568 8.7808 4.3008 20.8128 6.4512 36.096 6.4512z m22.1696-70.5536h-43.5968c0.7168-6.8864 2.432-12.0576 5.12-15.5392a20.0448 20.0448 0 0 1 16.8448-8.3712c6.0928 0 11.008 1.8432 14.72 5.5296 3.7376 3.712 6.0416 9.8304 6.912 18.3808z m144.1792 70.5536c9.0624 0 17.3056-2.3552 24.7296-7.1168 7.424-4.736 13.2352-11.9296 17.4592-21.504 4.1984-9.6256 6.2976-20.736 6.2976-33.3312 0-18.944-4.608-33.4336-13.824-43.5456a45.1584 45.1584 0 0 0-34.8928-15.1808c-6.8096 0-13.0304 1.152-18.6368 3.4816-5.632 2.304-10.6496 5.7856-15.0528 10.4448v-55.2448h-44.6976v159.3856h41.4208v-17.0496c5.7344 7.168 11.008 12.0576 15.872 14.6688 6.4512 3.328 13.568 4.992 21.3248 4.992z m-14.464-32.384a17.7152 17.7152 0 0 1-14.1824-6.6816c-3.7376-4.48-5.632-11.6736-5.632-21.6064 0-9.0368 1.92-15.7952 5.7344-20.2752a18.4832 18.4832 0 0 1 14.72-6.656c5.0176 0 9.2672 2.1248 12.8 6.4 3.5072 4.2752 5.248 10.9824 5.248 20.096 0 10.368-1.792 17.7408-5.376 22.144a16.5632 16.5632 0 0 1-13.312 6.5792z" fill="#02686c" p-id="38960"></path></svg>