<?xml version="1.0" standalone="no"?><!DOCTYPE svg PUBLIC "-//W3C//DTD SVG 1.1//EN" "http://www.w3.org/Graphics/SVG/1.1/DTD/svg11.dtd"><svg t="1692758716087" class="icon" viewBox="0 0 1024 1024" version="1.1" xmlns="http://www.w3.org/2000/svg" p-id="3921" width="48" height="48" xmlns:xlink="http://www.w3.org/1999/xlink"><path d="M409.6 645.12c26.624 30.72 40.96 69.632 40.96 112.64 0 96.256-77.824 174.08-174.08 174.08s-174.08-77.824-174.08-174.08 77.824-174.08 174.08-174.08c20.48 0 38.912 4.096 57.344 10.24l120.832-137.216-231.424-313.344v-61.44l280.576 319.488 280.576-319.488v61.44l-231.424 313.344 120.832 137.216c45.056-16.384 96.256-12.288 143.36 12.288 77.824 43.008 110.592 139.264 75.776 221.184-4.096 10.24-16.384 14.336-26.624 10.24-10.24-4.096-14.336-16.384-10.24-26.624 26.624-61.44 2.048-135.168-57.344-167.936-63.488-34.816-145.408-12.288-182.272 51.2s-12.288 145.408 53.248 180.224c36.864 20.48 79.872 22.528 116.736 6.144 10.24-4.096 22.528 0 26.624 10.24 4.096 10.24 0 22.528-10.24 26.624-49.152 20.48-104.448 18.432-151.552-8.192-83.968-47.104-114.688-153.6-67.584-237.568 6.144-10.24 12.288-18.432 18.432-26.624l-92.16-124.928-100.352 124.928z m-133.12 245.76c73.728 0 133.12-59.392 133.12-133.12s-59.392-133.12-133.12-133.12-133.12 59.392-133.12 133.12 59.392 133.12 133.12 133.12z m225.28-409.6c12.288 0 20.48-8.192 20.48-20.48s-8.192-20.48-20.48-20.48-20.48 8.192-20.48 20.48 8.192 20.48 20.48 20.48z" fill="#333333" p-id="3922"></path></svg>