<?xml version="1.0" standalone="no"?><!DOCTYPE svg PUBLIC "-//W3C//DTD SVG 1.1//EN" "http://www.w3.org/Graphics/SVG/1.1/DTD/svg11.dtd"><svg t="1692761721583" class="icon" viewBox="0 0 1024 1024" version="1.1" xmlns="http://www.w3.org/2000/svg" p-id="4032" xmlns:xlink="http://www.w3.org/1999/xlink" width="48" height="48"><path d="M896 512a42.666667 42.666667 0 0 1-42.666667 42.666667h-42.666666a42.666667 42.666667 0 0 1 0-85.333334h42.666666a42.666667 42.666667 0 0 1 42.666667 42.666667z m-213.333333 0a42.666667 42.666667 0 0 1-42.666667 42.666667h-42.666667a42.666667 42.666667 0 0 1 0-85.333334h42.666667a42.666667 42.666667 0 0 1 42.666667 42.666667z m-213.333334 0a42.666667 42.666667 0 0 1-42.666666 42.666667H384a42.666667 42.666667 0 0 1 0-85.333334h42.666667a42.666667 42.666667 0 0 1 42.666666 42.666667z m-213.333333 0a42.666667 42.666667 0 0 1-42.666667 42.666667H170.666667a42.666667 42.666667 0 0 1 0-85.333334h42.666666a42.666667 42.666667 0 0 1 42.666667 42.666667z" fill="#333333" p-id="4033"></path><path d="M638.293333 896H385.706667a21.333333 21.333333 0 0 1-16.64-34.645333l126.293333-157.866667a21.333333 21.333333 0 0 1 33.28 0l126.293333 157.866667a21.333333 21.333333 0 0 1-16.64 34.645333zM385.706667 128h252.586666a21.333333 21.333333 0 0 1 16.64 34.645333l-126.293333 157.866667a21.333333 21.333333 0 0 1-33.28 0l-126.293333-157.866667A21.333333 21.333333 0 0 1 385.706667 128z" fill="#333333" p-id="4034"></path></svg>