<?xml version="1.0" standalone="no"?><!DOCTYPE svg PUBLIC "-//W3C//DTD SVG 1.1//EN" "http://www.w3.org/Graphics/SVG/1.1/DTD/svg11.dtd"><svg t="1692752627014" class="icon" viewBox="0 0 1024 1024" version="1.1" xmlns="http://www.w3.org/2000/svg" p-id="5655" xmlns:xlink="http://www.w3.org/1999/xlink" width="48" height="48"><path d="M900.896 240.832c-21.344-29.024-51.04-63.04-83.584-95.552s-66.528-62.304-95.552-83.552c-49.44-36.256-73.376-40.384-87.136-40.384l-475.296 0c-42.336 0-76.704 34.336-76.704 76.672l0 827.968c0 42.336 34.368 76.704 76.704 76.704l705.248 0c42.208 0 76.768-34.336 76.768-76.704l0-597.952c-0.032-13.792-4.256-37.792-40.48-87.168l0 0 0 0zM773.856 188.672c29.504 29.472 52.544 55.968 69.568 77.984l-147.552 0 0-147.552c22.016 17.056 48.544 40.16 77.984 69.536l0 0 0 0 0 0zM880.032 925.952c0 8.384-7.008 15.392-15.392 15.392l-705.248 0c-8.384 0-15.392-7.008-15.392-15.392l0-827.936c0-8.288 7.008-15.328 15.392-15.328l475.296 0 0 214.688c0 16.864 13.728 30.688 30.688 30.688l214.688 0 0.032 597.92zM779.872 823.296l-172.928-172.96c29.024-36.384 46.432-82.464 46.432-132.704 0-117.6-95.328-212.896-212.896-212.896-117.632 0-212.896 95.296-212.896 212.896s95.328 212.896 212.896 212.896c46.304 0 83.744-9.344 118.688-34.496l173.984 173.984c6.56 6.56 17.088 6.56 23.584 0l23.136-23.072c6.432-6.528 6.432-17.12 0-23.648l0 0 0 0zM440.448 656.832c-76.896 0-139.232-62.336-139.232-139.232s62.336-139.232 139.232-139.232 139.232 62.336 139.232 139.232-62.304 139.232-139.232 139.232l0 0 0 0z" fill="#333333" p-id="5656"></path></svg>