<?xml version="1.0" standalone="no"?><!DOCTYPE svg PUBLIC "-//W3C//DTD SVG 1.1//EN" "http://www.w3.org/Graphics/SVG/1.1/DTD/svg11.dtd"><svg t="1692672166480" class="icon" viewBox="0 0 1024 1024" version="1.1" xmlns="http://www.w3.org/2000/svg" p-id="12787" xmlns:xlink="http://www.w3.org/1999/xlink" width="48" height="48"><path d="M864 896h-704a32 32 0 0 1-32-32v-704a32 32 0 0 1 32-32h704a32 32 0 0 1 32 32v704a32 32 0 0 1-32 32zM192 832h640V192H192z" fill="#666" p-id="12788"></path><path d="M416 704a30.08 30.08 0 0 1-22.4-9.6l-128-128a31.36 31.36 0 0 1 44.8-44.8L416 626.56l297.6-296.96a31.36 31.36 0 0 1 44.8 44.8l-320 320a30.08 30.08 0 0 1-22.4 9.6z" fill="#333333" p-id="12789"></path></svg>