<?xml version="1.0" standalone="no"?><!DOCTYPE svg PUBLIC "-//W3C//DTD SVG 1.1//EN" "http://www.w3.org/Graphics/SVG/1.1/DTD/svg11.dtd"><svg t="1692672450483" class="icon" viewBox="0 0 1024 1024" version="1.1" xmlns="http://www.w3.org/2000/svg" p-id="1133" xmlns:xlink="http://www.w3.org/1999/xlink" width="48" height="48"><path d="M991.985184 367.98977H847.91851V207.994708a32.037394 32.037394 0 0 0-31.992239-32.003527H655.987653V32.003528A32.037394 32.037394 0 0 0 623.995414 0H32.07126A32.037394 32.037394 0 0 0 0.067732 32.003528v592.014463a32.037394 32.037394 0 0 0 32.003528 31.992239h159.927329v143.998942a32.037394 32.037394 0 0 0 32.003528 31.992239h144.055385v160.00635a32.037394 32.037394 0 0 0 32.003528 31.992239h591.935442a32.026105 32.026105 0 0 0 31.992239-31.992239V399.993297a32.059971 32.059971 0 0 0-32.003527-32.003527zM224.002117 656.01023h400.004586a32.026105 32.026105 0 0 0 31.992239-31.992239V207.994708h159.938617l-0.045155 592.014464H384.279396l-0.225775-0.022577-0.225774 0.022577H224.002117V656.01023z m767.983067 335.997531H400.049741V832.001411h415.87653a32.026105 32.026105 0 0 0 31.992239-31.992239V399.993297h144.066674v592.014464z" p-id="1134" fill="#333333"></path></svg>