<?xml version="1.0" standalone="no"?><!DOCTYPE svg PUBLIC "-//W3C//DTD SVG 1.1//EN" "http://www.w3.org/Graphics/SVG/1.1/DTD/svg11.dtd"><svg t="1692672468420" class="icon" viewBox="0 0 1024 1024" version="1.1" xmlns="http://www.w3.org/2000/svg" p-id="1497" xmlns:xlink="http://www.w3.org/1999/xlink" width="48" height="48"><path d="M991.92874 367.967192H847.986242V207.994708a32.037394 32.037394 0 0 0-31.992239-32.003527H655.987653V32.003528A32.037394 32.037394 0 0 0 623.995414 0H32.07126A32.037394 32.037394 0 0 0 0.067732 32.003528v592.014463a32.037394 32.037394 0 0 0 32.003528 31.992239h159.995061v143.998942a32.037394 32.037394 0 0 0 32.003528 31.992239h143.931209v159.983773a32.037394 32.037394 0 0 0 32.003528 31.992239H991.940029a32.026105 32.026105 0 0 0 31.992239-31.992239V399.97072a32.059971 32.059971 0 0 0-32.003528-32.003528zM32.07126 32.003528h591.935443l-0.045155 592.014463H208.288215l-0.225774-0.022577-0.225775 0.022577H32.07126V32.003528z m191.998589 624.006702h399.936854a32.026105 32.026105 0 0 0 31.992239-31.992239V207.994708h160.00635v592.014464l-416.000706-0.022577-0.225774 0.022577H224.069849V656.01023z" p-id="1498" fill="#333333"></path></svg>