<?xml version="1.0" standalone="no"?><!DOCTYPE svg PUBLIC "-//W3C//DTD SVG 1.1//EN" "http://www.w3.org/Graphics/SVG/1.1/DTD/svg11.dtd"><svg t="1692761756866" class="icon" viewBox="0 0 1024 1024" version="1.1" xmlns="http://www.w3.org/2000/svg" p-id="5044" xmlns:xlink="http://www.w3.org/1999/xlink" width="48" height="48"><path d="M512 128a42.666667 42.666667 0 0 1 42.666667 42.666667v42.666666a42.666667 42.666667 0 0 1-85.333334 0V170.666667a42.666667 42.666667 0 0 1 42.666667-42.666667z m0 213.333333a42.666667 42.666667 0 0 1 42.666667 42.666667v42.666667a42.666667 42.666667 0 0 1-85.333334 0V384a42.666667 42.666667 0 0 1 42.666667-42.666667z m0 213.333334a42.666667 42.666667 0 0 1 42.666667 42.666666v42.666667a42.666667 42.666667 0 0 1-85.333334 0v-42.666667a42.666667 42.666667 0 0 1 42.666667-42.666666z m0 213.333333a42.666667 42.666667 0 0 1 42.666667 42.666667v42.666666a42.666667 42.666667 0 0 1-85.333334 0v-42.666666a42.666667 42.666667 0 0 1 42.666667-42.666667z" fill="#333333" p-id="5045"></path><path d="M896 385.706667v252.586666a21.333333 21.333333 0 0 1-34.645333 16.64l-157.866667-126.293333a21.333333 21.333333 0 0 1 0-33.28l157.866667-126.293333a21.333333 21.333333 0 0 1 34.645333 16.64zM128 638.293333V385.706667a21.333333 21.333333 0 0 1 34.645333-16.64l157.866667 126.293333a21.333333 21.333333 0 0 1 0 33.28l-157.866667 126.293333A21.333333 21.333333 0 0 1 128 638.293333z" fill="#333333" p-id="5046"></path></svg>